{
	"asset":{
		"generator":"Khronos glTF Blender I/O v4.2.70",
		"version":"2.0"
	},
	"scene":0,
	"scenes":[
		{
			"name":"Scene",
			"nodes":[
				0
			]
		}
	],
	"nodes":[
		{
			"mesh":0,
			"name":"Coin-d.001"
		}
	],
	"materials":[
		{
			"doubleSided":true,
			"name":"Material.001",
			"pbrMetallicRoughness":{
				"baseColorTexture":{
					"index":0
				},
				"metallicFactor":0,
				"roughnessFactor":0.5
			}
		}
	],
	"meshes":[
		{
			"name":"Cylinder.001",
			"primitives":[
				{
					"attributes":{
						"POSITION":0,
						"NORMAL":1,
						"TEXCOORD_0":2
					},
					"indices":3,
					"material":0
				}
			]
		}
	],
	"textures":[
		{
			"sampler":0,
			"source":0
		}
	],
	"images":[
		{
			"mimeType":"image/png",
			"name":"Material",
			"uri":"coin.png"
		}
	],
	"accessors":[
		{
			"bufferView":0,
			"componentType":5126,
			"count":3930,
			"max":[
				2.299198865890503,
				2.299198865890503,
				0.2637041509151459
			],
			"min":[
				-2.299198865890503,
				-2.299198865890503,
				-0.2637041509151459
			],
			"type":"VEC3"
		},
		{
			"bufferView":1,
			"componentType":5126,
			"count":3930,
			"type":"VEC3"
		},
		{
			"bufferView":2,
			"componentType":5126,
			"count":3930,
			"type":"VEC2"
		},
		{
			"bufferView":3,
			"componentType":5123,
			"count":19404,
			"type":"SCALAR"
		}
	],
	"bufferViews":[
		{
			"buffer":0,
			"byteLength":47160,
			"byteOffset":0,
			"target":34962
		},
		{
			"buffer":0,
			"byteLength":47160,
			"byteOffset":47160,
			"target":34962
		},
		{
			"buffer":0,
			"byteLength":31440,
			"byteOffset":94320,
			"target":34962
		},
		{
			"buffer":0,
			"byteLength":38808,
			"byteOffset":125760,
			"target":34963
		}
	],
	"samplers":[
		{
			"magFilter":9729,
			"minFilter":9987
		}
	],
	"buffers":[
		{
			"byteLength":164568,
			"uri":"coin.bin"
		}
	]
}
